Coordinates
version=1
nRows=16
nColumns=40
inDegrees=yes

Units are S.I. units (second, meters, Newtons, ...)
If the header above contains a line with 'inDegrees', this indicates whether rotational values are in degrees (yes) or radians (no).

endheader
time	pelvis_tilt	pelvis_list	pelvis_rotation	pelvis_tx	pelvis_ty	pelvis_tz	hip_flexion_r	hip_adduction_r	hip_rotation_r	knee_angle_r	knee_angle_r_beta	ankle_angle_r	subtalar_angle_r	mtp_angle_r	hip_flexion_l	hip_adduction_l	hip_rotation_l	knee_angle_l	knee_angle_l_beta	ankle_angle_l	subtalar_angle_l	mtp_angle_l	lumbar_extension	lumbar_bending	lumbar_rotation	arm_flex_r	arm_add_r	arm_rot_r	elbow_flex_r	pro_sup_r	wrist_flex_r	wrist_dev_r	arm_flex_l	arm_add_l	arm_rot_l	elbow_flex_l	pro_sup_l	wrist_flex_l	wrist_dev_l
      3.25500000	    -28.18078071	      5.19414335	     18.30240765	     -0.42299794	      0.50517997	     -0.99814143	    119.77060854	    -49.43218635	     23.07452357	    113.99378875	      1.98956694	     35.86249403	      0.00000000	      0.00000000	    102.28707972	     -4.37592801	     -5.10558546	    113.30361384	      1.97752112	     37.13561467	      0.00000000	      0.00000000	    -36.27634297	      7.00187581	    -15.75705572	    -22.95977079	    -56.30417679	     39.83597325	    100.28160841	     87.82073558	      0.00000000	      0.00000000	     -5.79408003	    -49.92939899	     58.34992293	     92.85657197	     87.78884966	      0.00000000	      0.00000000
      3.26000000	    -28.19663476	      5.03633816	     18.11936983	     -0.42261913	      0.50363967	     -0.99740646	    119.76807258	    -49.33076616	     22.80762740	    114.23415167	      1.99376206	     35.93420157	      0.00000000	      0.00000000	    102.53644129	     -4.68883166	     -4.86772639	    113.57395312	      1.98223943	     37.18867165	      0.00000000	      0.00000000	    -36.28352474	      6.97666435	    -15.42082864	    -23.79446502	    -56.03330183	     38.78923405	    100.33436261	     87.88809489	      0.00000000	      0.00000000	     -5.95758576	    -49.94805284	     58.12953670	     92.95839957	     87.83059426	      0.00000000	      0.00000000
      3.26500000	    -28.14808216	      4.96317316	     17.93320937	     -0.42196282	      0.50219883	     -0.99660188	    119.76651886	    -49.19492919	     22.68086399	    114.57089541	      1.99963935	     36.00106709	      0.00000000	      0.00000000	    102.66301152	     -4.99221478	     -4.67920988	    113.88058049	      1.98759108	     37.21348227	      0.00000000	      0.00000000	    -36.30551564	      6.86788147	    -15.23180016	    -23.84220086	    -55.89522001	     38.89283056	    100.28521385	     87.88989868	      0.00000000	      0.00000000	     -5.97436379	    -49.98143861	     58.20928100	     92.91564185	     87.82959366	      0.00000000	      0.00000000
      3.27000000	    -28.42566496	      4.52168106	     17.46671311	     -0.42189572	      0.49989853	     -0.99514063	    119.75579292	    -48.82776964	     21.82824487	    114.86235512	      2.00472628	     35.98897995	      0.00000000	      0.00000000	    103.37970359	     -5.62887568	     -4.11359250	    114.17791552	      1.99278056	     37.17796804	      0.00000000	      0.00000000	    -35.90141678	      6.78455385	    -14.65413371	    -23.85858044	    -55.84950866	     39.02301917	    100.18006543	     87.88791038	      0.00000000	      0.00000000	     -5.97325251	    -50.01682448	     58.35888683	     93.03091779	     87.82714123	      0.00000000	      0.00000000
      3.27500000	    -28.60029583	      4.26436872	     17.12872663	     -0.42167860	      0.49799918	     -0.99407965	    119.75350175	    -48.46795049	     21.37447937	    115.11161520	      2.00907669	     36.06340888	      0.00000000	      0.00000000	    103.87522993	     -6.09354732	     -3.73708580	    114.47094821	      1.99789494	     37.05150474	      0.00000000	      0.00000000	    -35.63724183	      6.66931605	    -14.64496070	    -22.86749628	    -56.07626140	     40.22739490	    100.12943605	     87.86880176	      0.00000000	      0.00000000	     -6.83113361	    -49.95372092	     57.58087402	     92.94060475	     87.80817753	      0.00000000	      0.00000000
      3.28000000	    -28.68127154	      4.16673258	     16.87632635	     -0.42135296	      0.49657722	     -0.99327230	    119.75440324	    -48.14427347	     21.19402827	    115.33719448	      2.01301379	     36.16186561	      0.00000000	      0.00000000	    104.13291997	     -6.42878975	     -3.50117862	    114.69677514	      2.00183637	     37.16069344	      0.00000000	      0.00000000	    -35.56357098	      6.52222583	    -14.58995738	    -22.54104653	    -56.07047152	     40.59666237	    100.04143084	     87.89408707	      0.00000000	      0.00000000	     -7.39144173	    -49.87848136	     56.95511976	     93.00259229	     87.84198573	      0.00000000	      0.00000000
      3.28500000	    -29.01162958	      4.91673139	     14.76498671	     -0.41929151	      0.49400346	     -0.98843620	    119.74755158	    -45.49249338	     20.76956161	    115.74269673	      2.02009114	     36.14152951	      0.00000000	      0.00000000	    104.17021942	     -9.23787201	     -3.74296641	    115.30776202	      2.01250010	     37.44292532	      0.00000000	      0.00000000	    -35.44959216	      4.27565248	    -13.30211168	    -22.55888057	    -55.32466486	     40.79839336	     99.49967209	     87.88066106	      0.00000000	      0.00000000	     -7.53198621	    -50.16633060	     56.97766943	     92.80827734	     87.81567154	      0.00000000	      0.00000000
      3.29000000	    -29.33061314	      4.59359767	     14.38956576	     -0.41946009	      0.49206471	     -0.98726703	    119.75057763	    -44.91659379	     20.29277259	    115.93691823	      2.02348095	     36.30926252	      0.00000000	      0.00000000	    104.85494140	     -9.67740300	     -3.23390084	    115.51863369	      2.01618051	     37.37847846	      0.00000000	      0.00000000	    -35.07059555	      4.19109181	    -13.01896510	    -22.27779480	    -55.41110643	     41.20285152	     99.50291698	     87.89276262	      0.00000000	      0.00000000	     -8.02289524	    -50.12914418	     56.47289215	     92.99983053	     87.83487105	      0.00000000	      0.00000000
      3.29500000	    -29.65488184	      4.29047258	     13.93086673	     -0.41966281	      0.49027605	     -0.98591861	    119.75003594	    -44.23826294	     19.77053704	    116.09193503	      2.02618650	     36.22873310	      0.00000000	      0.00000000	    105.51607844	    -10.23080734	     -2.75339761	    115.71297049	      2.01957232	     37.33017914	      0.00000000	      0.00000000	    -34.62619314	      3.99056091	    -12.79317751	    -21.49832198	    -55.56420121	     42.16205537	     99.44624531	     87.92878426	      0.00000000	      0.00000000	     -8.55364827	    -50.07190405	     55.97693612	     93.01036535	     87.87627962	      0.00000000	      0.00000000
      3.30000000	    -29.99088229	      4.30136829	     13.07531457	     -0.41967815	      0.48855023	     -0.98390738	    119.75161735	    -42.98434230	     19.40079929	    116.24695119	      2.02889204	     36.33530084	      0.00000000	      0.00000000	    105.99910111	    -11.27159046	     -2.48415937	    115.91844874	      2.02315859	     37.37581474	      0.00000000	      0.00000000	    -34.28433399	      3.31324517	    -12.20387747	    -21.26666818	    -55.47621702	     42.49762740	     99.40286820	     87.87515809	      0.00000000	      0.00000000	     -8.65372742	    -50.13261093	     55.88081784	     93.11999913	     87.83002787	      0.00000000	      0.00000000
      3.30500000	    -30.28854011	      4.06876073	     12.65960869	     -0.41953360	      0.48713113	     -0.98277998	    119.75055310	    -42.37182600	     18.99002505	    116.34832473	      2.03066135	     36.31161357	      0.00000000	      0.00000000	    106.53692418	    -11.73304980	     -2.04330661	    116.09032511	      2.02615840	     37.39843105	      0.00000000	      0.00000000	    -33.88646787	      3.12179542	    -11.78412391	    -21.27059774	    -55.42092739	     42.56050336	     99.30589419	     87.87697553	      0.00000000	      0.00000000	     -8.57241385	    -50.02229548	     55.92522517	     92.99383057	     87.82103389	      0.00000000	      0.00000000
      3.31000000	    -30.63693905	      4.05418206	     11.85824147	     -0.41934312	      0.48572900	     -0.98085636	    119.74931846	    -41.22552345	     18.57305329	    116.44039367	      2.03226825	     36.33923476	      0.00000000	      0.00000000	    107.00552893	    -12.69049942	     -1.73570082	    116.26838823	      2.02926619	     37.44030958	      0.00000000	      0.00000000	    -33.50610182	      2.52099455	    -11.19937242	    -21.16862016	    -55.28178034	     42.77408126	     99.17118883	     87.89731635	      0.00000000	      0.00000000	     -8.49432405	    -50.01233444	     56.08284003	     92.79196977	     87.82091988	      0.00000000	      0.00000000
      3.31500000	    -30.93192774	      4.31611785	     10.77764278	     -0.41893518	      0.48454427	     -0.97847749	    119.74352204	    -39.66861579	     18.31417955	    116.49778803	      2.03326997	     36.28066255	      0.00000000	      0.00000000	    107.26675783	    -13.99116530	     -1.61362626	    116.46525483	      2.03270216	     37.49519818	      0.00000000	      0.00000000	    -33.22357184	      1.48525233	    -10.45583483	    -21.03747130	    -55.07868211	     43.00241685	     99.00476898	     87.90129782	      0.00000000	      0.00000000	     -8.42303192	    -50.03826617	     56.12978387	     92.68024148	     87.81755549	      0.00000000	      0.00000000
      3.32000000	    -31.28048362	      4.12429334	     10.31596063	     -0.41908893	      0.48350543	     -0.97725802	    119.74150695	    -38.94436981	     17.93903298	    116.53617165	      2.03393989	     36.44223689	      0.00000000	      0.00000000	    107.80828336	    -14.46680245	     -1.18867202	    116.53050623	      2.03384101	     37.48508946	      0.00000000	      0.00000000	    -32.74317496	      1.24620758	    -10.32868033	    -20.00823534	    -55.27807996	     44.17483834	     98.95237097	     87.89681362	      0.00000000	      0.00000000	     -8.88299950	    -49.96582986	     55.72976145	     92.75535446	     87.83031304	      0.00000000	      0.00000000
      3.32500000	    -31.60201314	      3.64717984	     10.39242067	     -0.41955643	      0.48288451	     -0.97716552	    119.73898862	    -38.91241643	     17.53706344	    116.49787637	      2.03327151	     36.41390894	      0.00000000	      0.00000000	    108.43425898	    -14.19682359	     -0.61251581	    116.48614059	      2.03306669	     37.40566673	      0.00000000	      0.00000000	    -32.26107458	      1.63475674	    -10.34341768	    -19.52751113	    -55.49939967	     44.64207437	     99.01478790	     87.89440381	      0.00000000	      0.00000000	     -8.92304719	    -49.76537406	     55.73156908	     92.59659369	     87.84026290	      0.00000000	      0.00000000
      3.33000000	    -31.93265199	      3.47758072	     10.06713920	     -0.41956035	      0.48235974	     -0.97625482	    119.73592236	    -38.33510931	     17.24402963	    116.47677517	      2.03290323	     36.45533606	      0.00000000	      0.00000000	    108.86335747	    -14.45495192	     -0.24018982	    116.46841004	      2.03275723	     37.50518874	      0.00000000	      0.00000000	    -31.81273109	      1.49288377	    -10.05636786	    -19.43839542	    -55.47150689	     44.67094162	     99.00195253	     87.89811134	      0.00000000	      0.00000000	     -8.79214090	    -49.69814763	     55.76025468	     92.56485600	     87.84524360	      0.00000000	      0.00000000
